<svg width="50" height="26" viewBox="0 0 50 26" fill="none" xmlns="http://www.w3.org/2000/svg">
<path d="M48.7118 9V8.5H48.2118H42.8162H42.3162V9V13.1818C42.3162 14.7871 41.9644 16.2854 41.2619 17.6835C40.5202 19.1426 39.652 20.5426 38.6569 21.8839L38.3637 22.2792L38.7543 22.5786L41.8375 24.9423L42.1394 25.1737L42.4429 24.9445C43.7698 23.943 44.9068 22.7607 45.8524 21.3988L45.8532 21.3976C46.7769 20.0593 47.4889 18.6623 47.9864 17.2072L47.9875 17.2039C48.4672 15.768 48.7118 14.396 48.7118 13.0909V9ZM36.3789 9V8.5H35.8789H30.4833H29.9833V9V13.1818C29.9833 14.7871 29.6315 16.2854 28.929 17.6835C28.1873 19.1425 27.3191 20.5426 26.324 21.8839L26.0308 22.2792L26.4214 22.5786L29.5046 24.9423L29.8065 25.1737L30.11 24.9445C31.4369 23.943 32.5739 22.7607 33.5195 21.3988L33.5203 21.3976C34.444 20.0593 35.156 18.6623 35.6535 17.2072L35.6546 17.2039C36.1343 15.768 36.3789 14.396 36.3789 13.0909V9Z" stroke="white"/>
<path d="M13.3329 0.5H12.8329V1V5.09091C12.8329 6.39755 13.0861 7.77774 13.5819 9.22826C14.0638 10.6703 14.7765 12.0679 15.7158 13.4207C16.6459 14.7684 17.7753 15.9433 19.1018 16.9445L19.4054 17.1737L19.7072 16.9423L22.7904 14.5786L23.1811 14.2792L22.8878 13.8839C21.8927 12.5426 21.0328 11.1504 20.3074 9.70728L20.3064 9.70526C19.5877 8.29131 19.2286 6.78569 19.2286 5.18182V1V0.5H18.7286H13.3329ZM1 0.5H0.5V1V5.09091C0.5 6.39755 0.753199 7.77775 1.24895 9.22827C1.73093 10.6704 2.44366 12.068 3.38303 13.4209C4.31312 14.7685 5.44242 15.9433 6.76887 16.9445L7.07245 17.1737L7.3743 16.9423L10.4575 14.5786L10.8481 14.2792L10.5549 13.8839C9.5598 12.5426 8.69987 11.1504 7.97452 9.70728L7.97349 9.70526C7.25478 8.29131 6.89565 6.78569 6.89565 5.18182V1V0.5H6.39565H1Z" stroke="white"/>
</svg>
