<svg width="167" height="57" viewBox="0 0 167 57" fill="none" xmlns="http://www.w3.org/2000/svg">
<g id="Logo Galicia">
<g id="Group">
<path id="Vector" d="M162.032 6.19556H5.14893V50.5977H162.032V6.19556Z" fill="white"/>
<path id="Vector_2" d="M26.5346 8.69678H7.09082V48.1654H26.5346C37.3066 48.1883 46.0236 39.3538 46.0236 28.454C46.0462 17.5313 37.3066 8.69678 26.5346 8.69678ZM33.0159 22.1207C32.9933 22.1207 32.9482 22.1207 32.9256 22.0977C32.8578 22.0518 32.4965 21.8683 31.819 21.6388C30.9609 21.3864 29.493 21.0422 27.2121 20.9963C27.3476 23.4516 27.7767 24.8973 28.0251 25.5168L28.0477 25.5857C28.1832 25.9299 28.5897 26.733 29.222 26.9166C29.2672 26.9395 29.3123 26.9625 29.3123 27.0313C29.3123 27.0543 29.3123 27.0772 29.3123 27.1002L26.6475 45.6183C26.6475 45.6871 26.5798 45.756 26.4895 45.756C26.4217 45.756 26.354 45.6871 26.3314 45.6183L23.644 27.1231C23.644 27.1002 23.644 27.0543 23.644 27.0313C23.6666 26.9854 23.6892 26.9395 23.7569 26.9166C24.3893 26.733 24.7732 25.9299 24.9313 25.5857C25.1797 24.9432 25.6313 23.5204 25.7668 20.9733C23.486 21.0192 22.0181 21.3634 21.1599 21.6159C20.3921 21.8453 20.0534 22.0748 20.0534 22.0748C20.0308 22.0748 20.0082 22.0977 20.0082 22.0977C20.0082 22.0977 19.9856 22.0977 19.963 22.0977C18.9694 22.0977 18.1564 21.2717 18.1564 20.262C18.1564 19.2523 18.9694 18.4262 19.963 18.4262H19.9856C20.0082 18.4262 20.0308 18.4262 20.0534 18.4492C20.0534 18.4492 20.3921 18.6557 21.1599 18.9081C22.0181 19.1835 23.5085 19.5047 25.7894 19.5506C25.7217 17.233 25.4055 15.7415 25.1571 14.8924C24.9538 14.1811 24.7506 13.8598 24.7054 13.768C24.6828 13.7221 24.6828 13.6992 24.6828 13.6533C24.6828 13.1714 24.8861 12.7354 25.2022 12.3912C25.541 12.047 25.9926 11.8634 26.4669 11.8634C26.7379 11.8634 27.0089 11.9323 27.2799 12.047C27.867 12.3224 28.2509 12.9419 28.2735 13.6762C28.2735 13.7221 28.2735 13.7451 28.2509 13.791C28.2509 13.8139 28.0477 14.1352 27.7993 14.8924C27.5509 15.7415 27.2121 17.256 27.167 19.5506C29.4478 19.5047 30.9383 19.1835 31.7964 18.9081C32.4965 18.6787 32.8352 18.4951 32.903 18.4492C32.9256 18.4262 32.9707 18.4033 32.9933 18.4033C33.987 18.4033 34.8 19.2294 34.8 20.239C34.8225 21.3175 34.0096 22.1207 33.0159 22.1207Z" fill="#EC6519"/>
<path id="Vector_3" d="M158.961 8.69678H39.5428C45.053 12.7813 48.6663 19.3671 48.7566 26.8248C48.8695 36.4625 43.0657 44.7692 34.7778 48.1654H158.938V8.69678H158.961Z" fill="#EC6519"/>
<path id="Vector_4" d="M75.7878 38.8949C75.02 39.1932 74.1844 39.4685 73.3263 39.721C72.6036 39.9275 71.7681 40.1111 70.8196 40.2946C69.8937 40.4782 68.9452 40.547 67.9742 40.547C66.4159 40.547 64.9706 40.2717 63.6157 39.698C62.2607 39.1243 61.0864 38.3212 60.0702 37.2427C59.0539 36.1871 58.2861 34.8792 57.699 33.3876C57.1344 31.8731 56.8408 30.198 56.8408 28.3164C56.8408 26.4347 57.157 24.7367 57.7893 23.2451C58.4216 21.7306 59.3023 20.4456 60.3863 19.39C61.4929 18.3345 62.7575 17.5084 64.2028 16.9347C65.6481 16.3611 67.1838 16.0857 68.8097 16.0857C69.7582 16.0857 70.6389 16.1545 71.3842 16.2693C72.152 16.384 72.8069 16.4987 73.3489 16.6135C73.9812 16.7512 74.5683 16.9118 75.0877 17.0954L73.9586 20.3538C73.5747 20.285 73.1682 20.1932 72.7165 20.1014C72.3326 20.0326 71.881 19.9637 71.3616 19.9178C70.8422 19.849 70.2776 19.826 69.6679 19.826C68.4936 19.826 67.4096 20.0326 66.3934 20.4456C65.3771 20.8586 64.4964 21.4323 63.7286 22.1666C62.9834 22.9009 62.3962 23.8188 61.9671 24.8743C61.538 25.9299 61.3348 27.1002 61.3348 28.4082C61.3348 29.6473 61.5155 30.7717 61.8768 31.7813C62.2381 32.814 62.7575 33.6859 63.4124 34.3973C64.0673 35.1316 64.8351 35.7053 65.7385 36.1183C66.6418 36.5313 67.6354 36.7379 68.7194 36.7379C69.1485 36.7379 69.555 36.7379 69.8937 36.692C70.255 36.669 70.5486 36.6231 70.797 36.5772C71.0906 36.5313 71.3616 36.4855 71.5874 36.4396V30.9094H67.4773V27.3756H75.6975V38.8949H75.7878Z" fill="white"/>
<path id="Vector_5" d="M88.7732 40.134L88.4571 38.1146H88.3893C88.2312 38.2753 88.0054 38.4818 87.7118 38.7572C87.4183 39.0325 87.0795 39.2849 86.673 39.5603C86.2665 39.8357 85.8149 40.0651 85.2955 40.2487C84.7761 40.4552 84.1889 40.547 83.5566 40.547C82.992 40.547 82.4049 40.4323 81.8403 40.2028C81.2757 39.9733 80.7563 39.6291 80.3047 39.1931C79.853 38.7572 79.4691 38.2064 79.1981 37.5639C78.9045 36.9214 78.769 36.1871 78.769 35.361C78.769 34.076 79.1078 33.0663 79.7627 32.332C80.4176 31.5977 81.2306 31.0241 82.2016 30.634C83.1727 30.2439 84.2115 29.9915 85.3406 29.8767C86.4698 29.762 87.486 29.6931 88.4119 29.6931V29.3719C88.4119 28.2475 88.2087 27.3985 87.7796 26.8477C87.3505 26.297 86.6053 25.9987 85.5439 25.9987C85.0019 25.9987 84.4599 26.0675 83.9179 26.1823C83.3759 26.32 82.9017 26.4347 82.4726 26.5724C81.9758 26.733 81.479 26.9166 81.0047 27.1231L80.0789 24.6448C80.7112 24.3236 81.4112 24.0482 82.1339 23.7958C82.721 23.5663 83.3985 23.3598 84.1663 23.1762C84.9342 22.9927 85.6794 22.9009 86.4472 22.9009C88.3442 22.9009 89.7895 23.4287 90.8057 24.4842C91.8219 25.5398 92.3187 27.0084 92.3187 28.913V40.0881H88.7732V40.134ZM88.4119 32.3091C87.8699 32.3091 87.2602 32.355 86.5827 32.4238C85.9052 32.4927 85.2729 32.6303 84.6632 32.8139C84.0534 33.0204 83.5566 33.2958 83.1501 33.6859C82.7436 34.076 82.5404 34.5808 82.5404 35.2004C82.5404 35.8888 82.7662 36.4395 83.2179 36.8067C83.6695 37.1738 84.1663 37.3574 84.7309 37.3574C85.2052 37.3574 85.6794 37.2656 86.1085 37.082C86.5601 36.8985 86.944 36.6919 87.2828 36.4625C87.6893 36.2101 88.0506 35.9117 88.3893 35.5675V32.3091H88.4119Z" fill="white"/>
<path id="Vector_6" d="M100.539 14.5481H96.4287V40.1568H100.539V14.5481Z" fill="white"/>
<path id="Vector_7" d="M109.301 17.3936C109.301 18.059 109.075 18.6327 108.624 19.0916C108.172 19.5506 107.63 19.78 106.952 19.78C106.297 19.78 105.733 19.5506 105.304 19.0916C104.875 18.6327 104.649 18.059 104.649 17.3936C104.649 16.7281 104.875 16.1544 105.304 15.6955C105.733 15.2365 106.275 15.0071 106.952 15.0071C107.607 15.0071 108.172 15.2365 108.624 15.6955C109.075 16.1544 109.301 16.7281 109.301 17.3936ZM104.92 23.3827H109.03V40.1568H104.92V23.3827Z" fill="white"/>
<path id="Vector_8" d="M125.809 38.5047C125.222 38.8948 124.567 39.239 123.889 39.5374C123.302 39.7898 122.602 40.0192 121.834 40.2258C121.067 40.4323 120.254 40.547 119.395 40.547C118.447 40.547 117.521 40.3405 116.663 39.9504C115.805 39.5603 115.06 39.0096 114.427 38.2982C113.795 37.5869 113.276 36.7378 112.914 35.7511C112.53 34.7644 112.35 33.64 112.35 32.4009C112.35 31.1159 112.553 29.9226 112.959 28.7753C113.366 27.6509 113.953 26.6412 114.698 25.7692C115.443 24.8973 116.324 24.2089 117.363 23.704C118.402 23.1992 119.554 22.9468 120.796 22.9468C121.383 22.9468 121.947 22.9927 122.467 23.1074C122.986 23.2221 123.46 23.3139 123.912 23.4287C124.386 23.5663 124.861 23.727 125.312 23.8876L124.251 26.7101L123.573 26.5265C123.37 26.4806 123.122 26.4347 122.828 26.3888C122.534 26.3429 122.218 26.32 121.88 26.32C121.134 26.32 120.434 26.4576 119.802 26.756C119.17 27.0543 118.605 27.4444 118.153 27.9721C117.702 28.4999 117.34 29.1195 117.069 29.8079C116.798 30.5192 116.686 31.2765 116.686 32.1255C116.686 33.6171 117.092 34.8103 117.882 35.7052C118.673 36.6002 119.734 37.0591 121.021 37.0591C121.473 37.0591 121.925 37.0132 122.376 36.9444C122.828 36.8755 123.212 36.7837 123.551 36.6919C123.957 36.6002 124.319 36.4625 124.635 36.3018L125.809 38.5047Z" fill="white"/>
<path id="Vector_9" d="M132.832 17.3936C132.832 18.059 132.606 18.6327 132.155 19.0916C131.703 19.5506 131.161 19.78 130.484 19.78C129.829 19.78 129.264 19.5506 128.835 19.0916C128.406 18.6327 128.18 18.059 128.18 17.3936C128.18 16.7281 128.406 16.1544 128.835 15.6955C129.264 15.2365 129.806 15.0071 130.484 15.0071C131.139 15.0071 131.703 15.2365 132.155 15.6955C132.606 16.1544 132.832 16.7281 132.832 17.3936ZM128.451 23.3827H132.561V40.1568H128.451V23.3827Z" fill="white"/>
<path id="Vector_10" d="M145.727 40.134L145.411 38.1146H145.343C145.185 38.2753 144.959 38.4818 144.666 38.7572C144.372 39.0325 144.034 39.2849 143.65 39.5603C143.243 39.8357 142.791 40.0651 142.272 40.2487C141.753 40.4552 141.165 40.547 140.533 40.547C139.969 40.547 139.381 40.4323 138.817 40.2028C138.252 39.9733 137.733 39.6291 137.281 39.1931C136.83 38.7572 136.446 38.2064 136.175 37.5639C135.881 36.9214 135.746 36.1871 135.746 35.361C135.746 34.076 136.084 33.0663 136.739 32.332C137.394 31.5977 138.207 31.0241 139.178 30.634C140.149 30.2439 141.188 29.9915 142.317 29.8767C143.446 29.762 144.463 29.6931 145.388 29.6931V29.3719C145.388 28.2475 145.185 27.3985 144.756 26.8477C144.327 26.297 143.582 25.9987 142.52 25.9987C141.978 25.9987 141.436 26.0675 140.895 26.1823C140.353 26.32 139.878 26.4347 139.449 26.5724C138.952 26.733 138.456 26.9166 137.981 27.1231L137.055 24.6448C137.688 24.3236 138.388 24.0482 139.11 23.7958C139.698 23.5663 140.375 23.3598 141.143 23.1762C141.911 22.9927 142.656 22.9009 143.424 22.9009C145.321 22.9009 146.766 23.4287 147.782 24.4842C148.798 25.5398 149.295 27.0084 149.295 28.913V40.0881H145.727V40.134ZM145.388 32.3091C144.846 32.3091 144.237 32.355 143.559 32.4238C142.882 32.4927 142.249 32.6303 141.64 32.8139C141.03 33.0204 140.533 33.2958 140.127 33.6859C139.72 34.076 139.517 34.5808 139.517 35.2004C139.517 35.8888 139.743 36.4395 140.194 36.8067C140.646 37.1738 141.143 37.3574 141.707 37.3574C142.182 37.3574 142.656 37.2656 143.085 37.082C143.537 36.8985 143.921 36.6919 144.259 36.4625C144.666 36.2101 145.027 35.9117 145.366 35.5675V32.3091H145.388Z" fill="white"/>
</g>
</g>
</svg>
