<svg id="Capa_2" data-name="Capa 2" xmlns="http://www.w3.org/2000/svg" xmlns:xlink="http://www.w3.org/1999/xlink" viewBox="0 0 32 34"><defs><style>.cls-1{fill:none;}.cls-2{clip-path:url(#clip-path);}.cls-3{fill:#574d89;}.cls-4{fill:#67b2a6;}</style><clipPath id="clip-path"><rect class="cls-1" x="0.61" y="0.02" width="30.78" height="33.95"/></clipPath></defs><g class="cls-2"><g id="Frame"><path id="Vector" class="cls-3" d="M31.39,29.58H27V34h4.4Z"/><path id="Vector_2" data-name="Vector 2" class="cls-4" d="M29.19,29.58h-4.4V34h4.4Z"/><path id="Vector_3" data-name="Vector 3" class="cls-4" d="M11,0A10.4,10.4,0,0,0,.61,10.4V34H5V18.88a10.28,10.28,0,0,0,6,1.9A10.38,10.38,0,0,0,11,0Zm0,16.37a6,6,0,1,1,6-6A6,6,0,0,1,11,16.39Z"/><path id="Vector_4" data-name="Vector 4" class="cls-3" d="M27,12V7.59H9.4v16A10.4,10.4,0,0,0,19.79,34H22.6v-4.4H19.79a6,6,0,0,1-6-6V12Z"/></g></g></svg>