<svg id="Capa_5" data-name="Capa 5" xmlns="http://www.w3.org/2000/svg" xmlns:xlink="http://www.w3.org/1999/xlink" viewBox="0 0 32 34"><defs><style>.cls-1{fill:#fff;}.cls-2{fill:none;}.cls-3{clip-path:url(#clip-path);}.cls-4{fill:#67b2a6;}.cls-5{fill:#497fe7;}.cls-6{mask:url(#mask);}.cls-7{mask:url(#mask-2);}.cls-8{fill:#f4bacc;}</style><clipPath id="clip-path"><rect class="cls-2" x="2.5" y="1.52" width="27.01" height="30.97"/></clipPath><mask id="mask" x="9.9" y="20.13" width="10.39" height="4.67" maskUnits="userSpaceOnUse"><g id="mask0_1755_462" data-name="mask0 1755 462"><g id="SVGID"><path id="Vector_10" data-name="Vector 10" class="cls-1" d="M20.3,20.13H9.91V24.8H20.3Z"/></g></g></mask><mask id="mask-2" x="17.3" y="12.99" width="4.8" height="4.67" maskUnits="userSpaceOnUse"><g id="mask1_1755_462" data-name="mask1 1755 462"><g id="SVGID-2" data-name="SVGID"><path id="Vector_13" data-name="Vector 13" class="cls-1" d="M22.09,13H17.3v4.67h4.79Z"/></g></g></mask></defs><g class="cls-3"><g id="vector"><g id="Group_10" data-name="Group 10"><path id="Vector-2" data-name="Vector" class="cls-4" d="M19.7,32.48a9.75,9.75,0,1,1,9.8-9.74V24.8h-15a5.66,5.66,0,0,0,5.25,3.56ZM14.45,20.67H25a5.66,5.66,0,0,0-10.51,0Z"/><path id="Vector_2" data-name="Vector 2" class="cls-4" d="M17.54,17.12a5.64,5.64,0,0,1-5.13,3.55h7.88a9.14,9.14,0,0,0,1.14-2.11,5.66,5.66,0,0,0-3.77-1.44Z"/><path id="Vector_3" data-name="Vector 3" class="cls-4" d="M8.52,19.23a5.59,5.59,0,0,1-1.87-4.18V7.71H2.5v7.34a9.76,9.76,0,0,0,5.41,8.72c0-.34,0-.68,0-1A9.52,9.52,0,0,1,8.52,19.23Z"/><path id="Vector_4" data-name="Vector 4" class="cls-4" d="M20.3,20.67h-8a5.66,5.66,0,0,1-3.77-1.44,9.52,9.52,0,0,0-.66,3.51c0,.35,0,.69,0,1a9.83,9.83,0,0,0,12.39-3.1Z"/><path id="Vector_5" data-name="Vector 5" class="cls-4" d="M6.68,1.52H2.52V5.65H6.68Z"/><path id="Vector_6" data-name="Vector 6" class="cls-4" d="M29.5,28.35H25.35v4.13H29.5Z"/><path id="Vector_7" data-name="Vector 7" class="cls-5" d="M27.43,28.35H23.28v4.13h4.15Z"/><path id="Vector_8" data-name="Vector 8" class="cls-4" d="M17.3,17.66a5.61,5.61,0,0,1-2.6,2.47c-.09.18-.17.36-.25.54H20.3a9.65,9.65,0,0,0,1.48-3.16,5.74,5.74,0,0,0-2.08-.39A5.52,5.52,0,0,0,17.3,17.66Z"/><path id="Vector_9" data-name="Vector 9" class="cls-4" d="M10.22,20.28a5.64,5.64,0,0,1-3.57-5.23V7.71H2.5v7.34a9.77,9.77,0,0,0,7.58,9.5,9.83,9.83,0,0,1-.18-1.81A10.42,10.42,0,0,1,10.22,20.28Z"/><g id="Group"><g id="Group_2" data-name="Group 2"><g id="Clip_path_group" data-name="Clip path group"><g class="cls-6"><path id="Vector_11" data-name="Vector 11" class="cls-4" d="M20.29,20.67H14.45c.08-.18.16-.36.25-.54a5.56,5.56,0,0,1-2.41.54,5.69,5.69,0,0,1-2.07-.39,9.43,9.43,0,0,0-.14,4.27,10,10,0,0,0,2.21.25A9.77,9.77,0,0,0,20.29,20.67Z"/></g></g></g></g><path id="Vector_12" data-name="Vector 12" class="cls-4" d="M20.3,20.67H14.45c.08-.18.16-.36.25-.54a5.53,5.53,0,0,1-2.41.54,5.69,5.69,0,0,1-2.07-.39,9.43,9.43,0,0,0-.14,4.27,10,10,0,0,0,2.21.25A9.81,9.81,0,0,0,20.3,20.67Z"/><g id="Group_3" data-name="Group 3"><g id="Group_4" data-name="Group 4"><g id="Clip_path_group_2" data-name="Clip path group_2"><g class="cls-7"><path id="Vector_14" data-name="Vector 14" class="cls-8" d="M17.3,17.66a5.56,5.56,0,0,1,2.41-.54,5.69,5.69,0,0,1,2.07.39,10,10,0,0,0,.32-2.46,9.83,9.83,0,0,0-.18-1.81A10,10,0,0,0,19.71,13a9.47,9.47,0,0,0-2.08.22,5.63,5.63,0,0,1-.33,4.45Z"/></g></g></g></g><path id="Vector_15" data-name="Vector 15" class="cls-4" d="M17.3,17.66a5.56,5.56,0,0,1,2.41-.54,5.69,5.69,0,0,1,2.07.39,10,10,0,0,0,.32-2.46,9.83,9.83,0,0,0-.18-1.81A10,10,0,0,0,19.71,13a9.47,9.47,0,0,0-2.08.22,5.63,5.63,0,0,1-.33,4.45Z"/></g></g></g></svg>