<svg id="Capa_3" data-name="Capa 3" xmlns="http://www.w3.org/2000/svg" xmlns:xlink="http://www.w3.org/1999/xlink" viewBox="0 0 32 34"><defs><style>.cls-1{fill:none;}.cls-2{clip-path:url(#clip-path);}.cls-3{fill:#574d89;}.cls-4{fill:#e96d2d;}</style><clipPath id="clip-path"><rect class="cls-1" x="2.93" y="1.19" width="26.15" height="31.61"/></clipPath></defs><g class="cls-2"><g id="Frame"><path id="Vector" class="cls-3" d="M6.66,30.87H2.93v1.94H6.66Z"/><path id="Vector_2" data-name="Vector 2" class="cls-4" d="M6.66,27.13H2.93v1.94H6.66Z"/><path id="Vector_3" data-name="Vector 3" class="cls-3" d="M6.66,29.07H2.93v1.8H6.66Z"/><path id="Vector_4" data-name="Vector 4" class="cls-3" d="M10.4,14.91a5.07,5.07,0,0,1-3.38-3H10.4V8.15H7a5.09,5.09,0,0,1,3.38-3V4.23a8.89,8.89,0,0,1,3.73.23V5.53a5.08,5.08,0,0,1,2.34,2.62H14.13v3.73h6.43V10A8.82,8.82,0,1,0,10.4,18.73V14.91Z"/><path id="Vector_5" data-name="Vector 5" class="cls-3" d="M20.26,15.1H14.13v2.48A8.78,8.78,0,0,1,20.26,15.1Z"/><path id="Vector_6" data-name="Vector 6" class="cls-4" d="M25.34,16.72v2.11H20.25a5.11,5.11,0,0,1,4.61,2.93,5.21,5.21,0,0,1,.48,2.16,5.08,5.08,0,1,1-5.09-5.09H11.74a8.54,8.54,0,0,1-1.34-.1V32.81h3.73V30.25A8.81,8.81,0,1,0,25.34,16.72Z"/><path id="Vector_7" data-name="Vector 7" class="cls-4" d="M14.13,5.53a5,5,0,0,0-2.39-.6,5.41,5.41,0,0,0-1.34.18v3h3.73Z"/><path id="Vector_8" data-name="Vector 8" class="cls-4" d="M10.4,14.81v.1a5,5,0,0,0,1.35.19h2.38V11.88H10.4Z"/><path id="Vector_9" data-name="Vector 9" class="cls-4" d="M20.26,18.83h5.08V16.72a8.8,8.8,0,0,0-11.21.86V15.1H11.74a5,5,0,0,1-1.34-.19v3.82a8.45,8.45,0,0,0,1.34.1Z"/><path id="Vector_10" data-name="Vector 10" class="cls-3" d="M14.13,5.53V4.46a8.89,8.89,0,0,0-3.73-.23v.88a5,5,0,0,1,1.34-.18A5,5,0,0,1,14.13,5.53Z"/><path id="Vector_11" data-name="Vector 11" class="cls-3" d="M14.13,8.46V8.15H10.4v3.73h3.73V8.46Z"/></g></g></svg>