<svg id="Capa_4" data-name="Capa 4" xmlns="http://www.w3.org/2000/svg" xmlns:xlink="http://www.w3.org/1999/xlink" viewBox="0 0 32 34"><defs><style>.cls-1{fill:none;}.cls-2{clip-path:url(#clip-path);}.cls-3{fill:#f4bacc;}.cls-4{fill:#e96d2d;}</style><clipPath id="clip-path"><rect class="cls-1" x="2.83" y="3.14" width="25.86" height="27.72"/></clipPath></defs><g class="cls-2"><g id="Frame"><path id="Vector" class="cls-3" d="M28.69,27.17H25v3.69h3.69Z"/><path id="Vector_2" data-name="Vector 2" class="cls-4" d="M26.7,27.17H23v3.69H26.7Z"/><path id="Vector_3" data-name="Vector 3" class="cls-3" d="M21.31,24.29H11.56a8.74,8.74,0,0,1-8.73-8.73V3.14H19.47V6.83H6.53v8.73a5,5,0,0,0,5,5h9.75Z"/><path id="Vector_4" data-name="Vector 4" class="cls-4" d="M25,17.92h3.7a8.72,8.72,0,0,0-17.43.52V30.86H15V18.44a5,5,0,0,1,10-.52Z"/><path id="Vector_5" data-name="Vector 5" class="cls-4" d="M21.31,3.14h-3.7V6.83h3.7Z"/></g></g></svg>